<?xml version="1.0" encoding="utf-8"?>
<!-- Svg Vector Icons : http://www.onlinewebfonts.com/icon -->
<!DOCTYPE svg PUBLIC "-//W3C//DTD SVG 1.1//EN" "http://www.w3.org/Graphics/SVG/1.1/DTD/svg11.dtd">
<svg version="1.1" xmlns="http://www.w3.org/2000/svg" xmlns:xlink="http://www.w3.org/1999/xlink" x="0px" y="0px" viewBox="0 0 1000 1000" enable-background="new 0 0 1000 1000" xml:space="preserve">
<metadata> Svg Vector Icons : http://www.onlinewebfonts.com/icon </metadata>
<g><path d="M775.7,408.1V285.6C775.7,133.4,652.2,10,500,10c-152.2,0-275.6,123.4-275.6,275.6v122.5c-50.7,0-91.9,41.1-91.9,91.9v214.4c0,152.2,123.4,275.6,275.6,275.6h183.7c152.2,0,275.6-123.4,275.6-275.6V500C867.5,449.2,826.4,408.1,775.7,408.1z M296,284.5c0-118.4,80.5-205.8,198.9-205.8c118.4,0,210.6,87.4,210.6,205.8V407H648H352h-56V284.5z M793.9,588.4v120.1c0,115.8-94.3,210-210.1,210H413.9c-115.8,0-210.1-94.2-210.1-210V506.6c0-16.6,13.5-30,30-30c20,0,40,0,60,0h410.1c20,0,40,0,60,0c16.5,0,30,13.5,30,30V588.4z M494.9,590.7c33.8,0,61.2,27.4,61.2,61.3c0,18.6-10.1,54.1-20.4,82.1c-8.4,22.6-16.9,40.3-40.9,40.3c-22,0-32.5-17.9-40.8-40.6c-10.2-27.9-20.4-63.2-20.4-81.8C433.7,618.1,461.1,590.7,494.9,590.7z"/></g>
</svg>