<?xml version="1.0" encoding="utf-8"?>
<!-- Svg Vector Icons : http://www.onlinewebfonts.com/icon -->
<!DOCTYPE svg PUBLIC "-//W3C//DTD SVG 1.1//EN" "http://www.w3.org/Graphics/SVG/1.1/DTD/svg11.dtd">
<svg version="1.1" xmlns="http://www.w3.org/2000/svg" xmlns:xlink="http://www.w3.org/1999/xlink" x="0px" y="0px" viewBox="0 0 1000 1000" enable-background="new 0 0 1000 1000" xml:space="preserve">
<metadata> Svg Vector Icons : http://www.onlinewebfonts.com/icon </metadata>
<g><path d="M639.4,550.4c88.8-49.1,148.8-143.6,148.8-252.2C788.2,139,659.2,10,500,10c-159.2,0-288.2,129-288.2,288.2c0,108.5,60,203.1,148.8,252.2C174,609.5,38.8,784,38.8,990h57.6c0-222.8,180.7-403.5,403.5-403.5c222.8,0,403.5,180.7,403.5,403.5h57.6C961.2,784,826,609.5,639.4,550.4z M269.4,298.2c0-127.3,103.3-230.6,230.6-230.6s230.6,103.3,230.6,230.6c0,127.3-103.3,230.6-230.6,230.6S269.4,425.6,269.4,298.2z"/></g>
</svg>